<svg xmlns="http://www.w3.org/2000/svg" xmlns:xlink="http://www.w3.org/1999/xlink" style="margin:auto;background:#3b35ba;display:block;z-index:1;position:relative" width="1366" height="667" preserveAspectRatio="xMidYMid" viewBox="0 0 1366 667">
<g transform=""><defs>
  <path id="path-khnard4ke6-1" d="M-35 -35L35 -35L35 35L-35 35Z" fill="none" stroke="inherit" stroke-width="4.333333333333334" transform="scale(0.3)"></path>
  <path id="path-khnard4ke6-2" d="M0 -37A37 37 0 0 1 0 37A37 37 0 0 1 0 -37" fill="none" stroke="inherit" stroke-width="4.333333333333334" transform="scale(0.3)"></path>
  <path id="path-khnard4ke6-3" d="M0 -34.641L40 34.641L-40 34.641Z" fill="none" stroke="inherit" stroke-width="4.333333333333334" transform="scale(0.3)"></path>
</defs><path id="path0" d="M 103.25620657585002 630.4690715241472
c 0 34.717557754255076 -8.494721578168795 9.972064461328586 -18.46678603949738 9.972064461328586
S 66.32263449685526 665.1866292784023 66.32263449685526 630.4690715241472
s 8.494721578168795 -9.972064461328586 18.46678603949738 -9.972064461328586
S 103.25620657585002 595.7515137698922 103.25620657585002 630.4690715241472
z" fill="none" stroke="none"></path>
<use xlink:href="#path-khnard4ke6-1" x="0" y="0" stroke="#fefefb">
  <animateMotion begin="-1.5046014878464387s" dur="16.792308045934007s" keyPoints="1;0" keyTimes="0;1" repeatCount="indefinite" calcMode="linear">
    <mpath xlink:href="#path0"></mpath>
  </animateMotion>
</use><path id="path1" d="M 154.7596893826072 524.1413237798549
c 0 43.67363936942384 -10.686103249965406 12.544555989089828 -23.230659239055235 12.544555989089828
S 108.29837090449675 567.8149631492788 108.29837090449675 524.1413237798549
s 10.686103249965406 -12.544555989089828 23.230659239055235 -12.544555989089828
S 154.7596893826072 480.4676844104311 154.7596893826072 524.1413237798549
z" fill="none" stroke="none"></path>
<use xlink:href="#path-khnard4ke6-3" x="0" y="0" stroke="#fefefb">
  <animateMotion begin="-4.082504248374532s" dur="10.768959508488635s" keyPoints="1;0" keyTimes="0;1" repeatCount="indefinite" calcMode="linear">
    <mpath xlink:href="#path1"></mpath>
  </animateMotion>
</use><path id="path2" d="M 225.49449596591103 478.94207492083314
c 0 65.4698656200937 -16.019222438959094 18.805174167473723 -34.82439660643281 18.805174167473723
S 155.84570275304543 544.4119405409268 155.84570275304543 478.94207492083314
s 16.019222438959094 -18.805174167473723 34.82439660643281 -18.805174167473723
S 225.49449596591103 413.47220930073945 225.49449596591103 478.94207492083314
z" fill="none" stroke="none"></path>
<use xlink:href="#path-khnard4ke6-2" x="0" y="0" stroke="#fefefb">
  <animateMotion begin="-0.2845697910489309s" dur="16.80305499452907s" keyPoints="1;0" keyTimes="0;1" repeatCount="indefinite" calcMode="linear">
    <mpath xlink:href="#path2"></mpath>
  </animateMotion>
</use><path id="path3" d="M 286.7461729172404 562.1801173923466
c 0 19.186075933144526 -4.694465387897064 5.510894151009598 -10.205359538906663 5.510894151009598
S 266.33545383942703 581.366193325491 266.33545383942703 562.1801173923466
s 4.694465387897064 -5.510894151009598 10.205359538906663 -5.510894151009598
S 286.7461729172404 542.9940414592021 286.7461729172404 562.1801173923466
z" fill="none" stroke="none"></path>
<use xlink:href="#path-khnard4ke6-2" x="0" y="0" stroke="#44e7f9">
  <animateMotion begin="-1.434584421245948s" dur="11.642533506672365s" keyPoints="0;1" keyTimes="0;1" repeatCount="indefinite" calcMode="linear">
    <mpath xlink:href="#path3"></mpath>
  </animateMotion>
</use><path id="path4" d="M 397.16565395664026 192.65160034832053
c 0 29.989023041890807 -7.337739680462644 8.613868320543105 -15.951608001005749 8.613868320543105
S 365.26243795462875 222.64062339021135 365.26243795462875 192.65160034832053
s 7.337739680462644 -8.613868320543105 15.951608001005749 -8.613868320543105
S 397.16565395664026 162.6625773064297 397.16565395664026 192.65160034832053
z" fill="none" stroke="none"></path>
<use xlink:href="#path-khnard4ke6-1" x="0" y="0" stroke="#fefefb">
  <animateMotion begin="-3.855783734331438s" dur="17.68288153616393s" keyPoints="0;1" keyTimes="0;1" repeatCount="indefinite" calcMode="linear">
    <mpath xlink:href="#path4"></mpath>
  </animateMotion>
</use><path id="path5" d="M 423.95355401328254 218.93717115466177
c 0 54.63568797584376 -13.368306632387302 15.693229524976399 -29.0615361573637 15.693229524976399
S 365.8304816985551 273.57285913050555 365.8304816985551 218.93717115466177
s 13.368306632387302 -15.693229524976399 29.0615361573637 -15.693229524976399
S 423.95355401328254 164.30148317881802 423.95355401328254 218.93717115466177
z" fill="none" stroke="none"></path>
<use xlink:href="#path-khnard4ke6-2" x="0" y="0" stroke="#44e7f9">
  <animateMotion begin="-2.062025622778092s" dur="19.048092812727667s" keyPoints="1;0" keyTimes="0;1" repeatCount="indefinite" calcMode="linear">
    <mpath xlink:href="#path5"></mpath>
  </animateMotion>
</use><path id="path6" d="M 532.9249672312498 186.8984142727885
c 0 27.090655962101387 -6.628564756684381 7.7813586274121 -14.409923384096482 7.7813586274121
S 504.1051204630568 213.98907023488988 504.1051204630568 186.8984142727885
s 6.628564756684381 -7.7813586274121 14.409923384096482 -7.7813586274121
S 532.9249672312498 159.80775831068712 532.9249672312498 186.8984142727885
z" fill="none" stroke="none"></path>
<use xlink:href="#path-khnard4ke6-3" x="0" y="0" stroke="#fefefb">
  <animateMotion begin="-2.2836573911116087s" dur="12.030931784759808s" keyPoints="1;0" keyTimes="0;1" repeatCount="indefinite" calcMode="linear">
    <mpath xlink:href="#path6"></mpath>
  </animateMotion>
</use><path id="path7" d="M 556.3600782339394 643.312661245062
c 0 20.390619683052904 -4.989194177768263 5.856880121727961 -10.846074299496225 5.856880121727961
S 534.667929634947 663.703280928115 534.667929634947 643.312661245062
s 4.989194177768263 -5.856880121727961 10.846074299496225 -5.856880121727961
S 556.3600782339394 622.9220415620091 556.3600782339394 643.312661245062
z" fill="none" stroke="none"></path>
<use xlink:href="#path-khnard4ke6-1" x="0" y="0" stroke="#e65392">
  <animateMotion begin="-1.5925987085955506s" dur="12.874140252019808s" keyPoints="0;1" keyTimes="0;1" repeatCount="indefinite" calcMode="linear">
    <mpath xlink:href="#path7"></mpath>
  </animateMotion>
</use><path id="path8" d="M 651.343596552558 147.66279493794784
c 0 51.155601323103156 -12.516796068418856 14.693630167274312 -27.21042623569317 14.693630167274312
S 596.9227440811717 198.818396261051 596.9227440811717 147.66279493794784
s 12.516796068418856 -14.693630167274312 27.21042623569317 -14.693630167274312
S 651.343596552558 96.50719361484468 651.343596552558 147.66279493794784
z" fill="none" stroke="none"></path>
<use xlink:href="#path-khnard4ke6-3" x="0" y="0" stroke="#44e7f9">
  <animateMotion begin="-0.8757467698250998s" dur="18.58516905042479s" keyPoints="0;1" keyTimes="0;1" repeatCount="indefinite" calcMode="linear">
    <mpath xlink:href="#path8"></mpath>
  </animateMotion>
</use><path id="path9" d="M 739.8598280055646 108.33900445902846
c 0 29.937132600028388 -7.325043082985669 8.59896361915709 -15.924006702142758 8.59896361915709
S 708.0118146012792 138.27613705905685 708.0118146012792 108.33900445902846
s 7.325043082985669 -8.59896361915709 15.924006702142758 -8.59896361915709
S 739.8598280055646 78.40187185900007 739.8598280055646 108.33900445902846
z" fill="none" stroke="none"></path>
<use xlink:href="#path-khnard4ke6-3" x="0" y="0" stroke="#e65392">
  <animateMotion begin="-4.6000763737861785s" dur="13.232039870707485s" keyPoints="0;1" keyTimes="0;1" repeatCount="indefinite" calcMode="linear">
    <mpath xlink:href="#path9"></mpath>
  </animateMotion>
</use><path id="path10" d="M 824.0891955985095 602.8190305443261
c 0 49.3061451828961 -12.064269566027768 14.162403403597816 -26.226672969625582 14.162403403597816
S 771.6358496592583 652.1251757272222 771.6358496592583 602.8190305443261
s 12.064269566027768 -14.162403403597816 26.226672969625582 -14.162403403597816
S 824.0891955985095 553.51288536143 824.0891955985095 602.8190305443261
z" fill="none" stroke="none"></path>
<use xlink:href="#path-khnard4ke6-1" x="0" y="0" stroke="#44e7f9">
  <animateMotion begin="-4.329892861988684s" dur="12.700765902723743s" keyPoints="1;0" keyTimes="0;1" repeatCount="indefinite" calcMode="linear">
    <mpath xlink:href="#path10"></mpath>
  </animateMotion>
</use><path id="path11" d="M 916.285615797327 608.3706379961837
c 0 26.52990156707198 -6.491358894070803 7.620290875648336 -14.11164976971914 7.620290875648336
S 888.0623162578886 634.9005395632557 888.0623162578886 608.3706379961837
s 6.491358894070803 -7.620290875648336 14.11164976971914 -7.620290875648336
S 916.285615797327 581.8407364291118 916.285615797327 608.3706379961837
z" fill="none" stroke="none"></path>
<use xlink:href="#path-khnard4ke6-2" x="0" y="0" stroke="#44e7f9">
  <animateMotion begin="-0.4603006835920609s" dur="15.786391792073003s" keyPoints="0;1" keyTimes="0;1" repeatCount="indefinite" calcMode="linear">
    <mpath xlink:href="#path11"></mpath>
  </animateMotion>
</use><path id="path12" d="M 914.9882390180568 87.3774474049689
c 0 25.580228276910088 -6.258992025201404 7.347512377410344 -13.606504402611748 7.347512377410344
S 887.7752302128332 112.957675681879 887.7752302128332 87.3774474049689
s 6.258992025201404 -7.347512377410344 13.606504402611748 -7.347512377410344
S 914.9882390180568 61.79721912805881 914.9882390180568 87.3774474049689
z" fill="none" stroke="none"></path>
<use xlink:href="#path-khnard4ke6-3" x="0" y="0" stroke="#e65392">
  <animateMotion begin="-2.417147041999068s" dur="14.774406986211057s" keyPoints="0;1" keyTimes="0;1" repeatCount="indefinite" calcMode="linear">
    <mpath xlink:href="#path12"></mpath>
  </animateMotion>
</use><path id="path13" d="M 1042.3105601151779 377.13289252564846
c 0 55.67788682616564 -13.623312734061804 15.992584513898642 -29.615897247960447 15.992584513898642
S 983.0787656192568 432.8107793518141 983.0787656192568 377.13289252564846
s 13.623312734061804 -15.992584513898642 29.615897247960447 -15.992584513898642
S 1042.3105601151779 321.4550056994828 1042.3105601151779 377.13289252564846
z" fill="none" stroke="none"></path>
<use xlink:href="#path-khnard4ke6-3" x="0" y="0" stroke="#e65392">
  <animateMotion begin="-1.9420806489772646s" dur="18.35847181189625s" keyPoints="1;0" keyTimes="0;1" repeatCount="indefinite" calcMode="linear">
    <mpath xlink:href="#path13"></mpath>
  </animateMotion>
</use><path id="path14" d="M 1131.1342470650852 458.36951250994497
c 0 26.816761624596907 -6.561548057082221 7.70268684961826 -14.264234906700482 7.70268684961826
S 1102.6057772516842 485.18627413454186 1102.6057772516842 458.36951250994497
s 6.561548057082221 -7.70268684961826 14.264234906700482 -7.70268684961826
S 1131.1342470650852 431.5527508853481 1131.1342470650852 458.36951250994497
z" fill="none" stroke="none"></path>
<use xlink:href="#path-khnard4ke6-2" x="0" y="0" stroke="#fefefb">
  <animateMotion begin="-0.4825175090878897s" dur="12.689132093336514s" keyPoints="1;0" keyTimes="0;1" repeatCount="indefinite" calcMode="linear">
    <mpath xlink:href="#path14"></mpath>
  </animateMotion>
</use><path id="path15" d="M 1178.7454858906938 167.03079380064426
c 0 19.642671263076824 -4.806185521816669 5.64204387343696 -10.44822939525363 5.64204387343696
S 1157.8490271001867 186.6734650637211 1157.8490271001867 167.03079380064426
s 4.806185521816669 -5.64204387343696 10.44822939525363 -5.64204387343696
S 1178.7454858906938 147.38812253756743 1178.7454858906938 167.03079380064426
z" fill="none" stroke="none"></path>
<use xlink:href="#path-khnard4ke6-2" x="0" y="0" stroke="#44e7f9">
  <animateMotion begin="-1.4184751805801632s" dur="14.94553550861606s" keyPoints="0;1" keyTimes="0;1" repeatCount="indefinite" calcMode="linear">
    <mpath xlink:href="#path15"></mpath>
  </animateMotion>
</use><path id="path16" d="M 1278.8515799941272 93.34828123150554
c 0 38.96047311002114 -9.532881718409428 11.190774191176287 -20.723655909585716 11.190774191176287
S 1237.4042681749559 132.30875434152668 1237.4042681749559 93.34828123150554
s 9.532881718409428 -11.190774191176287 20.723655909585716 -11.190774191176287
S 1278.8515799941272 54.3878081214844 1278.8515799941272 93.34828123150554
z" fill="none" stroke="none"></path>
<use xlink:href="#path-khnard4ke6-3" x="0" y="0" stroke="#44e7f9">
  <animateMotion begin="-3.9233508256999916s" dur="19.2492608100985s" keyPoints="0;1" keyTimes="0;1" repeatCount="indefinite" calcMode="linear">
    <mpath xlink:href="#path16"></mpath>
  </animateMotion>
</use><path id="path17" d="M 1342.303797861923 643.9856049851037
c 0 39.32885148538577 -9.623016852807154 11.296585001121445 -20.9196018539286 11.296585001121445
S 1300.464594154066 683.3144564704894 1300.464594154066 643.9856049851037
s 9.623016852807154 -11.296585001121445 20.9196018539286 -11.296585001121445
S 1342.303797861923 604.656753499718 1342.303797861923 643.9856049851037
z" fill="none" stroke="none"></path>
<use xlink:href="#path-khnard4ke6-3" x="0" y="0" stroke="#44e7f9">
  <animateMotion begin="-3.2286802409757396s" dur="15.579628246728332s" keyPoints="0;1" keyTimes="0;1" repeatCount="indefinite" calcMode="linear">
    <mpath xlink:href="#path17"></mpath>
  </animateMotion>
</use></g>
</svg>